<?xml version="1.0" encoding="iso-8859-1"?>
<!-- Generator: Adobe Illustrator 19.0.0, SVG Export Plug-In . SVG Version: 6.00 Build 0)  -->
<svg version="1.1" id="Layer_1" xmlns="http://www.w3.org/2000/svg" xmlns:xlink="http://www.w3.org/1999/xlink" x="0px" y="0px"
	 viewBox="0 0 504 504" style="enable-background:new 0 0 504 504;" xml:space="preserve">
<circle style="fill:#FFD05B;" cx="252" cy="252" r="252"/>
<circle style="fill:#F1543F;" cx="252" cy="159.6" r="65.2"/>
<path style="fill:#2C9984;" d="M263.2,225.2h107.6c0-1.2,0-2.4,0-3.6c0-36-29.2-65.2-65.2-65.2c-22.4,0-42,11.2-54,28.4
	c7.2,10.4,11.2,23.2,11.2,36.8C263.2,222.8,263.2,224,263.2,225.2z"/>
<path style="fill:#E6E9EE;" d="M252,185.2c-11.6-17.2-31.6-28.4-54-28.4c-36,0-65.2,29.2-65.2,65.2c0,1.2,0,2.4,0,3.6h107.6h22.4
	c0-1.2,0-2.4,0-3.6C263.2,208.4,259.2,195.6,252,185.2z"/>
<path style="fill:#2B3B4E;" d="M370.8,225.2H263.2h-22.4H133.2h-7.6c-4.4,0-8,4-7.2,8.8l32.4,169.6c0.8,3.6,3.6,6,7.2,6h188
	c3.6,0,6.4-2.4,7.2-6L385.6,234c0.8-4.4-2.4-8.8-7.2-8.8H370.8z"/>
<path style="fill:#FFFFFF;" d="M173.6,378.4L150.4,258c-0.4-2.8,1.6-5.6,4.8-5.6h193.6c3.2,0,5.2,2.8,4.8,5.6l-23.2,120.4
	c-0.4,2.4-2.4,4-4.8,4H178.4C176,382.4,174,380.8,173.6,378.4z"/>
<path style="fill:#F1543F;" d="M252,274c10-12.4,24-15.2,34.4-11.2c24.4,9.2,30.4,44,9.2,66C252,373.6,252,373.6,252,373.6
	s0,0-43.6-45.2c-21.2-22-15.2-56.8,9.2-66C228,258.8,242,261.6,252,274z"/>
<g>
</g>
<g>
</g>
<g>
</g>
<g>
</g>
<g>
</g>
<g>
</g>
<g>
</g>
<g>
</g>
<g>
</g>
<g>
</g>
<g>
</g>
<g>
</g>
<g>
</g>
<g>
</g>
<g>
</g>
</svg>
